<svg width="648" height="200" viewBox="0 0 648 200" fill="none" xmlns="http://www.w3.org/2000/svg">
<path d="M264.669 146.319H262.444L317.869 16.5624L319.908 15.6356L366.62 146.319H350.864L336.405 105.538H282.279L264.669 146.319ZM312.123 36.582L283.02 103.685H335.849L312.123 36.582ZM413.204 61.6064V57.7138C407.643 59.9381 402.576 64.4487 398.004 71.2455C393.431 77.9187 391.021 84.2211 390.774 90.1528V146.319H377.799V53.6357H390.774V83.1089C392.752 75.9414 396.521 69.2065 402.082 62.904C407.643 56.4779 413.945 53.1413 420.989 52.8942H421.73C424.202 52.8942 426.241 53.7593 427.848 55.4894C429.578 57.0959 430.443 59.135 430.443 61.6064C430.443 64.0779 429.578 66.117 427.848 67.7235C426.241 69.3301 424.202 70.1333 421.73 70.1333C419.259 70.1333 417.22 69.3301 415.613 67.7235C414.007 66.117 413.204 64.0779 413.204 61.6064ZM463.322 146.319C458.255 146.319 454.363 145.207 451.644 142.982C449.049 140.758 447.69 138.533 447.566 136.309L447.38 133.158V53.6357H460.356V133.158C460.356 136.742 461.036 139.522 462.395 141.499C463.878 143.353 465.299 144.342 466.659 144.465L468.883 144.836H474.63V146.319H463.322ZM448.493 32.8747C447.01 31.3917 446.268 29.5381 446.268 27.3137C446.268 25.0893 447.01 23.2356 448.493 21.7527C449.976 20.1462 451.829 19.3429 454.054 19.3429C456.278 19.3429 458.132 20.1462 459.615 21.7527C461.221 23.2356 462.024 25.0893 462.024 27.3137C462.024 29.5381 461.221 31.3917 459.615 32.8747C458.132 34.3576 456.278 35.0991 454.054 35.0991C451.829 35.0991 449.976 34.3576 448.493 32.8747ZM513.03 146.319C502.157 146.319 495.298 143.477 492.454 137.792C491.837 136.556 491.528 135.444 491.528 134.455V7.47949H504.503V133.158C504.503 136.742 505.184 139.522 506.542 141.499C508.025 143.353 509.508 144.342 510.991 144.465L513.03 144.836H518.776V146.319H513.03ZM548.041 146.319C542.973 146.319 539.08 145.207 536.363 142.982C533.768 140.758 532.407 138.533 532.285 136.309L532.1 133.158V53.6357H545.075V133.158C545.075 136.742 545.754 139.522 547.114 141.499C548.597 143.353 550.017 144.342 551.378 144.465L553.602 144.836H559.348V146.319H548.041ZM533.212 32.8747C531.729 31.3917 530.987 29.5381 530.987 27.3137C530.987 25.0893 531.729 23.2356 533.212 21.7527C534.695 20.1462 536.548 19.3429 538.773 19.3429C540.997 19.3429 542.851 20.1462 544.334 21.7527C545.939 23.2356 546.744 25.0893 546.744 27.3137C546.744 29.5381 545.939 31.3917 544.334 32.8747C542.851 34.3576 540.997 35.0991 538.773 35.0991C536.548 35.0991 534.695 34.3576 533.212 32.8747ZM577.915 55.1186V53.6357H642.237V55.1186L586.256 144.836H630.559C639.085 144.836 644.215 142.364 645.944 137.421L647.056 137.977C647.056 138.472 646.624 139.337 645.759 140.572C644.893 141.685 643.905 142.612 642.793 143.353C639.827 145.33 635.749 146.319 630.559 146.319H573.28V144.836L629.261 55.1186H577.915Z" fill="#FFCE3B"/>
<path d="M311.848 191.055L313.212 191.158C313.622 191.158 313.826 190.907 313.826 190.407V173.387C313.826 172.909 313.633 172.671 313.247 172.671H313.178L311.848 172.739V171.716H326.651C326.924 171.716 327.095 171.704 327.163 171.682V176.968H326.242C326.242 175.468 325.855 174.376 325.082 173.694C324.309 173.012 323.081 172.671 321.399 172.671H317.408C317.135 172.671 316.999 172.819 316.999 173.114V181.334H319.557C320.375 181.334 321.023 181.027 321.501 180.413C322.001 179.777 322.251 178.924 322.251 177.855H323.172V185.7H322.251C322.251 184.677 322.001 183.858 321.501 183.244C321.001 182.608 320.353 182.289 319.557 182.289H316.999V190.441C316.999 190.646 317.055 190.817 317.169 190.953C317.306 191.089 317.465 191.158 317.647 191.158L319.42 191.055V192.079H311.848V191.055ZM346.622 191.192V192.079H341.778C341.801 191.919 341.824 191.715 341.846 191.465C341.892 191.192 341.915 190.976 341.915 190.817L341.983 189.486C341.483 190.464 340.834 191.169 340.039 191.601C339.266 192.033 338.333 192.249 337.242 192.249C335.809 192.249 334.718 191.931 333.967 191.294C333.24 190.635 332.876 189.668 332.876 188.395C332.876 186.644 333.603 185.359 335.059 184.541C336.537 183.699 338.845 183.279 341.983 183.279V181.3C341.983 180.231 341.733 179.47 341.232 179.015C340.732 178.56 339.925 178.333 338.811 178.333C337.083 178.333 336.218 178.81 336.218 179.765C336.218 179.947 336.264 180.163 336.355 180.413C336.469 180.641 336.525 180.857 336.525 181.061C336.525 181.448 336.4 181.744 336.15 181.948C335.9 182.13 335.582 182.221 335.195 182.221C334.718 182.221 334.342 182.073 334.07 181.778C333.819 181.482 333.694 181.096 333.694 180.618C333.694 179.663 334.195 178.89 335.195 178.299C336.196 177.707 337.537 177.412 339.22 177.412C343.017 177.412 344.916 179.015 344.916 182.221V190.612C344.916 191.044 345.064 191.26 345.36 191.26L346.622 191.192ZM338.265 191.021C339.266 191.021 340.118 190.612 340.823 189.793C341.528 188.952 341.915 187.872 341.983 186.553V184.199C339.845 184.199 338.31 184.518 337.378 185.154C336.446 185.768 335.98 186.758 335.98 188.122C335.98 189.077 336.173 189.805 336.56 190.305C336.969 190.782 337.537 191.021 338.265 191.021ZM354.439 187.235L355.326 187.167C355.326 188.008 355.553 188.759 356.008 189.418C356.463 190.077 357.066 190.589 357.816 190.953C358.566 191.317 359.385 191.499 360.272 191.499C361.181 191.499 361.886 191.271 362.386 190.817C362.887 190.339 363.137 189.702 363.137 188.906C363.137 188.27 362.955 187.747 362.591 187.337C362.227 186.928 361.613 186.598 360.749 186.348L357.475 185.427C356.565 185.154 355.849 184.7 355.326 184.063C354.803 183.404 354.541 182.596 354.541 181.641C354.541 180.391 355.008 179.379 355.94 178.606C356.872 177.81 358.146 177.412 359.76 177.412C360.215 177.412 360.613 177.446 360.954 177.514C361.318 177.582 361.761 177.696 362.284 177.855C362.989 178.06 363.512 178.162 363.853 178.162C364.194 178.162 364.513 178.071 364.808 177.889L364.604 181.778H363.853C363.853 180.868 363.489 180.072 362.762 179.39C362.057 178.685 361.09 178.333 359.862 178.333C358.998 178.333 358.316 178.56 357.816 179.015C357.338 179.47 357.1 180.05 357.1 180.754C357.1 181.869 357.805 182.619 359.214 183.006L362.489 183.927C363.648 184.245 364.467 184.722 364.945 185.359C365.422 185.973 365.661 186.78 365.661 187.781C365.661 189.259 365.138 190.407 364.092 191.226C363.046 192.022 361.682 192.42 359.999 192.42C359.521 192.42 359.021 192.363 358.498 192.249C357.998 192.158 357.225 191.965 356.179 191.669C355.838 191.578 355.531 191.533 355.258 191.533C354.803 191.533 354.473 191.601 354.269 191.737L354.439 187.235ZM389.473 191.192V192.079H382.822V191.192L384.391 191.26C384.687 191.192 384.834 190.976 384.834 190.612V182.869C384.834 181.778 384.778 180.936 384.664 180.345C384.573 179.754 384.368 179.299 384.05 178.981C383.732 178.662 383.231 178.503 382.549 178.503C381.253 178.503 380.196 179.06 379.377 180.175C378.581 181.266 378.149 182.744 378.081 184.609V190.612C378.081 191.044 378.229 191.26 378.524 191.26L380.093 191.192V192.079H373.442V191.192L374.704 191.26C375 191.192 375.148 190.976 375.148 190.612V168.68C375.148 168.203 375 167.964 374.704 167.964L373.442 168.032V167.179H378.081V180.823C378.558 179.754 379.241 178.924 380.127 178.333C381.014 177.719 382.038 177.412 383.197 177.412C384.812 177.412 385.971 177.798 386.676 178.572C387.404 179.322 387.768 180.55 387.768 182.255V190.612C387.768 191.044 387.916 191.26 388.211 191.26L389.473 191.192ZM399.753 170.147C400.299 170.147 400.742 170.295 401.084 170.59C401.447 170.886 401.629 171.272 401.629 171.75C401.629 172.273 401.459 172.682 401.118 172.978C400.777 173.251 400.322 173.387 399.753 173.387C399.208 173.387 398.764 173.251 398.423 172.978C398.082 172.682 397.911 172.273 397.911 171.75C397.911 171.272 398.082 170.886 398.423 170.59C398.764 170.295 399.208 170.147 399.753 170.147ZM401.459 190.612C401.459 191.044 401.607 191.26 401.902 191.26L403.13 191.192V192.079H396.82V191.192L398.082 191.26C398.378 191.26 398.525 191.044 398.525 190.612V179.254C398.525 178.867 398.389 178.64 398.116 178.572L396.854 178.64V177.753H401.459V190.612ZM410.971 184.882C410.971 182.562 411.551 180.743 412.71 179.424C413.87 178.083 415.576 177.412 417.827 177.412C420.078 177.412 421.783 178.083 422.943 179.424C424.103 180.743 424.683 182.562 424.683 184.882C424.683 187.246 424.103 189.1 422.943 190.441C421.783 191.76 420.078 192.42 417.827 192.42C415.576 192.42 413.87 191.76 412.71 190.441C411.551 189.1 410.971 187.246 410.971 184.882ZM414.075 184.95C414.075 187.246 414.359 188.918 414.928 189.964C415.519 190.987 416.485 191.499 417.827 191.499C419.168 191.499 420.123 190.987 420.692 189.964C421.283 188.918 421.579 187.246 421.579 184.95C421.579 182.63 421.283 180.948 420.692 179.902C420.123 178.856 419.168 178.333 417.827 178.333C416.485 178.333 415.519 178.856 414.928 179.902C414.359 180.948 414.075 182.63 414.075 184.95ZM448.548 191.192V192.079H441.897V191.192L443.466 191.26C443.761 191.192 443.909 190.976 443.909 190.612V182.869C443.909 181.778 443.852 180.936 443.738 180.345C443.648 179.754 443.443 179.299 443.125 178.981C442.806 178.662 442.306 178.503 441.624 178.503C440.328 178.503 439.27 179.06 438.452 180.175C437.656 181.266 437.224 182.744 437.156 184.609V190.612C437.156 191.044 437.303 191.26 437.599 191.26L439.168 191.192V192.079H432.517V191.192L433.779 191.26C434.074 191.192 434.222 190.976 434.222 190.612V179.254C434.222 178.867 434.074 178.64 433.779 178.572L432.517 178.64V177.753H437.326C437.212 178.094 437.156 178.492 437.156 178.947V180.823C437.633 179.754 438.315 178.924 439.202 178.333C440.089 177.719 441.112 177.412 442.272 177.412C443.886 177.412 445.046 177.798 445.751 178.572C446.479 179.322 446.842 180.55 446.842 182.255V190.612C446.842 191.044 446.99 191.26 447.286 191.26L448.548 191.192ZM488.97 191.123V192.079H483.274L481.33 189.452C479.738 191.43 477.634 192.42 475.02 192.42C473.132 192.42 471.552 191.942 470.278 190.987C469.028 190.009 468.402 188.588 468.402 186.723C468.402 185.336 468.834 184.143 469.699 183.142C470.563 182.142 472.063 181.027 474.201 179.799L473.962 179.492C472.757 177.878 472.154 176.48 472.154 175.297C472.154 174.16 472.609 173.228 473.519 172.5C474.428 171.773 475.554 171.409 476.895 171.409C478.146 171.409 479.113 171.727 479.795 172.364C480.477 172.978 480.818 173.739 480.818 174.649C480.818 176.309 479.692 177.764 477.441 179.015L482.319 185.7C483.024 183.927 483.376 182.187 483.376 180.482C483.376 180.05 483.342 179.765 483.274 179.629C483.206 179.47 483.081 179.39 482.899 179.39L481.33 179.458V178.469H486.48V179.458L484.911 179.39C484.752 179.39 484.638 179.447 484.57 179.561C484.524 179.674 484.49 179.868 484.468 180.141C484.24 182.619 483.751 184.779 483.001 186.621L486.037 190.748C486.264 191.044 486.605 191.192 487.06 191.192L488.97 191.123ZM477.271 172.466C476.543 172.466 475.94 172.637 475.463 172.978C475.008 173.319 474.781 173.774 474.781 174.342C474.781 174.82 474.94 175.343 475.258 175.911C475.599 176.48 476.077 177.184 476.691 178.026L476.895 178.299C478.828 177.207 479.795 176.002 479.795 174.683C479.795 174.001 479.556 173.467 479.078 173.08C478.624 172.671 478.021 172.466 477.271 172.466ZM475.804 191.362C476.736 191.362 477.612 191.123 478.43 190.646C479.272 190.146 480.022 189.464 480.682 188.599L474.781 180.584C472.552 182.153 471.438 184.097 471.438 186.417C471.438 187.895 471.836 189.088 472.632 189.998C473.451 190.907 474.508 191.362 475.804 191.362ZM508.415 182.016C508.415 178.674 509.313 176.07 511.109 174.206C512.928 172.318 515.441 171.375 518.647 171.375C519.489 171.375 520.182 171.443 520.728 171.579C521.296 171.716 521.99 171.92 522.809 172.193C523.377 172.398 523.866 172.557 524.275 172.671C524.707 172.784 525.196 172.841 525.742 172.841C525.651 173.546 525.605 174.399 525.605 175.399C525.605 175.877 525.617 176.309 525.64 176.696C525.662 177.059 525.696 177.264 525.742 177.31H524.923C524.719 176.377 524.298 175.524 523.661 174.751C523.025 173.978 522.251 173.364 521.342 172.909C520.432 172.455 519.477 172.227 518.477 172.227C517.135 172.227 515.964 172.637 514.964 173.455C513.986 174.251 513.224 175.388 512.678 176.866C512.155 178.344 511.894 180.061 511.894 182.016C511.894 183.858 512.167 185.507 512.712 186.962C513.281 188.395 514.077 189.509 515.1 190.305C516.123 191.101 517.306 191.499 518.647 191.499C520.216 191.499 521.603 191.021 522.809 190.066C524.014 189.088 524.775 187.86 525.094 186.382H526.049C525.912 187.451 525.844 188.418 525.844 189.282C525.844 189.941 525.878 190.475 525.947 190.885H525.742C525.424 190.885 525.048 190.942 524.616 191.055C524.184 191.146 523.832 191.237 523.559 191.328C523.309 191.419 523.127 191.476 523.013 191.499C522.149 191.794 521.365 192.022 520.66 192.181C519.955 192.34 519.227 192.42 518.477 192.42C516.43 192.42 514.645 191.999 513.122 191.158C511.621 190.316 510.461 189.122 509.643 187.576C508.824 186.007 508.415 184.154 508.415 182.016ZM542.844 177.412C543.731 177.412 544.413 177.662 544.891 178.162C545.391 178.662 545.641 179.299 545.641 180.072C545.641 180.595 545.505 180.993 545.232 181.266C544.982 181.539 544.641 181.675 544.209 181.675C543.89 181.675 543.595 181.596 543.322 181.437C543.072 181.255 542.947 180.982 542.947 180.618C542.947 180.413 542.992 180.152 543.083 179.834C543.174 179.515 543.22 179.265 543.22 179.083C543.22 178.901 543.151 178.742 543.015 178.606C542.901 178.446 542.708 178.367 542.435 178.367C541.73 178.367 541.116 178.708 540.593 179.39C540.07 180.05 539.661 180.88 539.365 181.88C539.07 182.858 538.899 183.802 538.854 184.711V190.612C538.854 191.044 539.002 191.26 539.297 191.26L541.378 191.192V192.079H534.386V191.192L535.477 191.26C535.773 191.26 535.92 191.044 535.92 190.612V179.254C535.92 178.799 535.773 178.572 535.477 178.572L534.249 178.64V177.753H539.058C539.013 177.889 538.967 178.117 538.922 178.435C538.877 178.731 538.854 179.026 538.854 179.322V180.993C539.377 179.72 539.957 178.81 540.593 178.265C541.253 177.696 542.003 177.412 542.844 177.412ZM566.237 191.192V192.079H561.394C561.417 191.919 561.439 191.715 561.462 191.465C561.508 191.192 561.53 190.976 561.53 190.817L561.599 189.486C561.098 190.464 560.45 191.169 559.654 191.601C558.881 192.033 557.949 192.249 556.857 192.249C555.425 192.249 554.333 191.931 553.583 191.294C552.855 190.635 552.492 189.668 552.492 188.395C552.492 186.644 553.219 185.359 554.674 184.541C556.153 183.699 558.461 183.279 561.599 183.279V181.3C561.599 180.231 561.348 179.47 560.848 179.015C560.348 178.56 559.541 178.333 558.426 178.333C556.698 178.333 555.834 178.81 555.834 179.765C555.834 179.947 555.88 180.163 555.971 180.413C556.084 180.641 556.141 180.857 556.141 181.061C556.141 181.448 556.016 181.744 555.766 181.948C555.516 182.13 555.197 182.221 554.811 182.221C554.333 182.221 553.958 182.073 553.685 181.778C553.435 181.482 553.31 181.096 553.31 180.618C553.31 179.663 553.81 178.89 554.811 178.299C555.811 177.707 557.153 177.412 558.836 177.412C562.633 177.412 564.532 179.015 564.532 182.221V190.612C564.532 191.044 564.68 191.26 564.975 191.26L566.237 191.192ZM557.881 191.021C558.881 191.021 559.734 190.612 560.439 189.793C561.144 188.952 561.53 187.872 561.599 186.553V184.199C559.461 184.199 557.926 184.518 556.994 185.154C556.062 185.768 555.595 186.758 555.595 188.122C555.595 189.077 555.789 189.805 556.175 190.305C556.585 190.782 557.153 191.021 557.881 191.021ZM573.578 191.192L574.84 191.26C575.135 191.26 575.283 191.044 575.283 190.612V178.606H573.953V177.753H575.283V175.502C575.283 169.817 577.262 166.975 581.218 166.975C582.287 166.975 583.219 167.316 584.015 167.998C584.834 168.68 585.243 169.51 585.243 170.488C585.243 170.965 585.106 171.363 584.834 171.682C584.561 172 584.151 172.159 583.606 172.159C582.81 172.159 582.412 171.829 582.412 171.17C582.412 170.988 582.457 170.761 582.548 170.488C582.662 170.215 582.719 169.942 582.719 169.669C582.719 169.169 582.571 168.748 582.275 168.407C581.98 168.066 581.548 167.896 580.979 167.896C580.161 167.896 579.456 168.191 578.865 168.782C578.273 169.374 577.978 170.442 577.978 171.989C577.978 172.625 578.012 173.376 578.08 174.24C578.103 174.558 578.126 174.933 578.148 175.365C578.171 175.797 578.182 176.264 578.182 176.764V177.753H581.832V178.606H578.217V190.612C578.217 191.044 578.364 191.26 578.66 191.26L580.911 191.192V192.079H573.578V191.192ZM593.766 177.753H597.518V178.606H593.766V189.077C593.766 189.941 593.868 190.532 594.073 190.851C594.277 191.146 594.641 191.294 595.164 191.294C595.505 191.294 595.858 191.169 596.222 190.919C596.585 190.646 596.824 190.316 596.938 189.93L597.654 190.373C597.199 191.646 595.994 192.283 594.039 192.283C592.879 192.283 592.049 192.01 591.549 191.465C591.071 190.919 590.832 190.032 590.832 188.804V178.606H588.786V177.753C589.695 177.753 590.389 177.673 590.867 177.514C591.344 177.332 591.719 177.003 591.992 176.525C592.288 176.047 592.561 175.297 592.811 174.274H593.766V177.753Z" fill="#212834"/>
<path d="M117.538 50.9812C120.431 55.8312 122.46 60.6084 123.975 64.8695C124.706 66.9211 125.219 68.5887 125.588 69.8801C125.915 71.2098 126.162 72.069 126.162 72.069C126.162 72.069 126.313 71.2638 126.295 69.7909C126.329 68.4537 126.307 66.6201 126.082 64.3991C125.62 59.8674 124.337 54.1518 121.176 48.8184C115.861 39.8774 106.655 31.8269 90.9166 31.8269C80.4113 31.8269 72.7511 35.4368 67.2203 40.5836C60.8337 46.5795 57.9147 54.498 56.6417 60.7497C55.9796 63.9691 55.7441 66.7079 55.6631 68.6863C55.6208 69.7123 55.6208 70.5103 55.6329 71.0908C55.7024 71.5924 55.6722 72.0593 55.6722 72.076C55.6717 72.0879 55.6717 72.0863 55.6717 72.0863C55.6717 72.0863 55.6716 72.0879 55.6724 72.076C55.6773 72.0004 55.6874 71.6409 55.8682 71.109C55.9921 70.5379 56.1666 69.7779 56.4215 68.7986C56.9156 66.8966 57.6638 64.3391 58.8016 61.3789C61.0302 55.6168 64.5466 48.8016 70.1041 43.6823C74.8471 39.2686 81.4983 36.0597 90.9172 36.0597C104.857 36.0597 112.876 43.1389 117.538 50.9815V50.9812Z" fill="#212834"/>
<path d="M22.2739 81.4927L159.819 85.0583L181.831 194.303L168.332 76.545L22.2739 81.4927Z" fill="#212834"/>
<path d="M175.667 194.444L14.6378 185.262L16.1096 82.0049L0 199.9L175.667 194.444Z" fill="#212834"/>
<path d="M219.33 18.0857C174.923 40.889 170.988 56.1582 172.388 70.434C175.278 64.7194 182.574 56.0164 194.061 49.6864C188.851 56.8245 182.533 66.8904 177.329 71.7751C202.876 73.6816 201.392 48.4685 219.33 18.0857Z" fill="#FFBF01"/>
<path d="M191.704 75.8275C184.538 76.0337 179.386 78.4463 174.914 81.6038C184.814 79.9712 201.177 81.6595 208.654 89.8979C191.452 83.1076 181.043 88.5176 174.877 87.7545C187.41 109.515 211.753 95.8794 242.6 95.0076C217.988 80.2378 202.546 75.5151 191.704 75.8275Z" fill="#FFBF01"/>
<path d="M151.184 0C136.886 44.481 142.996 59.2208 152.924 68.3934C150.815 61.2985 150.626 49.6591 155.092 35.7643C155.21 50.9876 159.245 60.8268 159.873 67.2208C177.235 48.4013 160.61 31.7346 151.184 0Z" fill="#FFBF01"/>
</svg>
