<svg width="207" height="64" viewBox="0 0 207 64" fill="none" xmlns="http://www.w3.org/2000/svg">
<path d="M84.6706 46.8089H83.959L101.69 5.29849L102.342 5.00199L117.286 46.8089H112.245L107.62 33.7628H90.3041L84.6706 46.8089ZM99.8515 11.703L90.5414 33.1698H107.442L99.8515 11.703ZM132.188 19.7085V18.4632C130.409 19.1748 128.789 20.6178 127.326 22.7922C125.863 24.927 125.092 26.9432 125.013 28.8408V46.8089H120.862V17.1586H125.013V26.5874C125.646 24.2944 126.851 22.1399 128.63 20.1236C130.409 18.0679 132.426 17.0005 134.679 16.9214H134.916C135.707 16.9214 136.359 17.1982 136.873 17.7516C137.427 18.2656 137.703 18.9179 137.703 19.7085C137.703 20.4992 137.427 21.1515 136.873 21.6655C136.359 22.1794 135.707 22.4364 134.916 22.4364C134.126 22.4364 133.473 22.1794 132.959 21.6655C132.445 21.1515 132.188 20.4992 132.188 19.7085ZM148.222 46.8089C146.601 46.8089 145.356 46.4531 144.486 45.7415C143.656 45.0299 143.221 44.3183 143.181 43.6067L143.122 42.5986V17.1586H147.273V42.5986C147.273 43.745 147.49 44.6345 147.925 45.2671C148.4 45.8601 148.854 46.1763 149.289 46.2159L150.001 46.3345H151.839V46.8089H148.222ZM143.478 10.5169C143.003 10.0425 142.766 9.44953 142.766 8.73793C142.766 8.02632 143.003 7.43331 143.478 6.95891C143.952 6.44497 144.545 6.18799 145.257 6.18799C145.968 6.18799 146.561 6.44497 147.036 6.95891C147.55 7.43331 147.807 8.02632 147.807 8.73793C147.807 9.44953 147.55 10.0425 147.036 10.5169C146.561 10.9913 145.968 11.2285 145.257 11.2285C144.545 11.2285 143.952 10.9913 143.478 10.5169ZM164.124 46.8089C160.645 46.8089 158.451 45.8997 157.542 44.0811C157.344 43.6857 157.245 43.3299 157.245 43.0137V2.39276H161.396V42.5986C161.396 43.745 161.614 44.6345 162.048 45.2671C162.523 45.8601 162.997 46.1763 163.472 46.2159L164.124 46.3345H165.962V46.8089H164.124ZM175.324 46.8089C173.703 46.8089 172.458 46.4531 171.588 45.7415C170.758 45.0299 170.323 44.3183 170.284 43.6067L170.225 42.5986V17.1586H174.376V42.5986C174.376 43.745 174.593 44.6345 175.028 45.2671C175.502 45.8601 175.956 46.1763 176.392 46.2159L177.103 46.3345H178.942V46.8089H175.324ZM170.58 10.5169C170.106 10.0425 169.869 9.44953 169.869 8.73793C169.869 8.02632 170.106 7.43331 170.58 6.95891C171.055 6.44497 171.648 6.18799 172.359 6.18799C173.071 6.18799 173.664 6.44497 174.138 6.95891C174.652 7.43331 174.909 8.02632 174.909 8.73793C174.909 9.44953 174.652 10.0425 174.138 10.5169C173.664 10.9913 173.071 11.2285 172.359 11.2285C171.648 11.2285 171.055 10.9913 170.58 10.5169ZM184.881 17.633V17.1586H205.458V17.633L187.55 46.3345H201.723C204.45 46.3345 206.091 45.5438 206.645 43.9625L207 44.1404C207 44.2985 206.862 44.5752 206.585 44.9706C206.308 45.3264 205.992 45.6229 205.636 45.8601C204.688 46.4927 203.383 46.8089 201.723 46.8089H183.399V46.3345L201.307 17.633H184.881Z" fill="white"/>
<path d="M99.7637 61.1206L100.2 61.1533C100.331 61.1533 100.397 61.0733 100.397 60.9133V55.4683C100.397 55.3156 100.335 55.2392 100.211 55.2392H100.189L99.7637 55.261V54.9337H104.499C104.587 54.9337 104.641 54.93 104.663 54.9227V56.6141H104.368C104.368 56.1339 104.245 55.7848 103.997 55.5665C103.75 55.3483 103.357 55.2392 102.819 55.2392H101.542C101.455 55.2392 101.411 55.2865 101.411 55.381V58.0108H102.23C102.492 58.0108 102.699 57.9126 102.852 57.7161C103.012 57.5125 103.092 57.2397 103.092 56.8978H103.386V59.4075H103.092C103.092 59.0801 103.012 58.8182 102.852 58.6218C102.692 58.4181 102.484 58.3163 102.23 58.3163H101.411V60.9242C101.411 60.9897 101.43 61.0442 101.466 61.0879C101.51 61.1315 101.56 61.1533 101.619 61.1533L102.186 61.1206V61.4479H99.7637V61.1206ZM110.888 61.1642V61.4479H109.339C109.346 61.397 109.353 61.3316 109.36 61.2515C109.375 61.1642 109.382 61.0951 109.382 61.0442L109.404 60.6187C109.244 60.9315 109.037 61.157 108.782 61.2952C108.535 61.4334 108.237 61.5025 107.887 61.5025C107.429 61.5025 107.08 61.4007 106.84 61.197C106.607 60.986 106.491 60.6768 106.491 60.2695C106.491 59.7093 106.723 59.2983 107.189 59.0365C107.662 58.7673 108.4 58.6327 109.404 58.6327V57.9998C109.404 57.6579 109.324 57.4143 109.164 57.2688C109.004 57.1233 108.746 57.0505 108.389 57.0505C107.836 57.0505 107.56 57.2033 107.56 57.5088C107.56 57.567 107.575 57.6361 107.604 57.7161C107.64 57.7889 107.658 57.858 107.658 57.9235C107.658 58.0471 107.618 58.1417 107.538 58.2072C107.458 58.2654 107.356 58.2945 107.233 58.2945C107.08 58.2945 106.96 58.2472 106.873 58.1526C106.793 58.058 106.753 57.9344 106.753 57.7816C106.753 57.4761 106.913 57.2288 107.233 57.0396C107.553 56.8505 107.982 56.7559 108.52 56.7559C109.735 56.7559 110.342 57.2688 110.342 58.2945V60.9787C110.342 61.117 110.39 61.1861 110.484 61.1861L110.888 61.1642ZM108.215 61.1097C108.535 61.1097 108.808 60.9787 109.033 60.7169C109.259 60.4477 109.382 60.1022 109.404 59.6802V58.9273C108.72 58.9273 108.229 59.0292 107.931 59.2329C107.633 59.4293 107.484 59.7457 107.484 60.1822C107.484 60.4877 107.545 60.7205 107.669 60.8805C107.8 61.0333 107.982 61.1097 108.215 61.1097ZM113.389 59.8985L113.673 59.8767C113.673 60.1458 113.745 60.3859 113.891 60.5968C114.036 60.8078 114.229 60.9715 114.469 61.0879C114.709 61.2042 114.971 61.2624 115.255 61.2624C115.546 61.2624 115.771 61.1897 115.931 61.0442C116.091 60.8914 116.171 60.6878 116.171 60.4332C116.171 60.2295 116.113 60.0622 115.997 59.9312C115.88 59.8003 115.684 59.6948 115.408 59.6148L114.36 59.3202C114.069 59.2329 113.84 59.0874 113.673 58.8837C113.505 58.6727 113.422 58.4145 113.422 58.109C113.422 57.7089 113.571 57.3852 113.869 57.1378C114.167 56.8832 114.575 56.7559 115.091 56.7559C115.237 56.7559 115.364 56.7668 115.473 56.7886C115.59 56.8105 115.731 56.8468 115.899 56.8978C116.124 56.9632 116.291 56.996 116.401 56.996C116.51 56.996 116.612 56.9669 116.706 56.9087L116.641 58.1526H116.401C116.401 57.8616 116.284 57.607 116.051 57.3888C115.826 57.1633 115.517 57.0505 115.124 57.0505C114.848 57.0505 114.629 57.1233 114.469 57.2688C114.316 57.4143 114.24 57.5998 114.24 57.8253C114.24 58.1817 114.466 58.4218 114.917 58.5454L115.964 58.84C116.335 58.9419 116.597 59.0947 116.75 59.2983C116.903 59.4947 116.979 59.753 116.979 60.0731C116.979 60.5459 116.812 60.9133 116.477 61.1752C116.142 61.4298 115.706 61.5571 115.168 61.5571C115.015 61.5571 114.855 61.5389 114.687 61.5025C114.527 61.4734 114.28 61.4116 113.945 61.317C113.836 61.2879 113.738 61.2734 113.651 61.2734C113.505 61.2734 113.4 61.2952 113.334 61.3388L113.389 59.8985ZM124.597 61.1642V61.4479H122.469V61.1642L122.971 61.1861C123.065 61.1642 123.113 61.0951 123.113 60.9787V58.5018C123.113 58.1526 123.095 57.8835 123.058 57.6943C123.029 57.5052 122.964 57.3597 122.862 57.2579C122.76 57.156 122.6 57.1051 122.382 57.1051C121.967 57.1051 121.629 57.2833 121.367 57.6398C121.112 57.9889 120.974 58.4618 120.952 59.0583V60.9787C120.952 61.117 121 61.1861 121.094 61.1861L121.596 61.1642V61.4479H119.468V61.1642L119.872 61.1861C119.967 61.1642 120.014 61.0951 120.014 60.9787V53.9625C120.014 53.8098 119.967 53.7334 119.872 53.7334L119.468 53.7552V53.4824H120.952V57.8471C121.105 57.5052 121.323 57.2397 121.607 57.0505C121.891 56.8541 122.218 56.7559 122.589 56.7559C123.105 56.7559 123.476 56.8796 123.702 57.1269C123.935 57.367 124.051 57.7598 124.051 58.3054V60.9787C124.051 61.117 124.098 61.1861 124.193 61.1861L124.597 61.1642ZM127.885 54.4317C128.06 54.4317 128.202 54.479 128.311 54.5736C128.427 54.6681 128.486 54.7918 128.486 54.9446C128.486 55.1119 128.431 55.2428 128.322 55.3374C128.213 55.4247 128.067 55.4683 127.885 55.4683C127.711 55.4683 127.569 55.4247 127.46 55.3374C127.351 55.2428 127.296 55.1119 127.296 54.9446C127.296 54.7918 127.351 54.6681 127.46 54.5736C127.569 54.479 127.711 54.4317 127.885 54.4317ZM128.431 60.9787C128.431 61.117 128.478 61.1861 128.573 61.1861L128.966 61.1642V61.4479H126.947V61.1642L127.351 61.1861C127.445 61.1861 127.493 61.117 127.493 60.9787V57.3451C127.493 57.2215 127.449 57.1487 127.362 57.1269L126.958 57.1487V56.865H128.431V60.9787ZM131.474 59.1456C131.474 58.4036 131.66 57.8216 132.031 57.3997C132.402 56.9705 132.947 56.7559 133.667 56.7559C134.388 56.7559 134.933 56.9705 135.304 57.3997C135.675 57.8216 135.861 58.4036 135.861 59.1456C135.861 59.9021 135.675 60.495 135.304 60.9242C134.933 61.3461 134.388 61.5571 133.667 61.5571C132.947 61.5571 132.402 61.3461 132.031 60.9242C131.66 60.495 131.474 59.9021 131.474 59.1456ZM132.467 59.1674C132.467 59.9021 132.558 60.4368 132.74 60.7714C132.929 61.0988 133.238 61.2624 133.667 61.2624C134.097 61.2624 134.402 61.0988 134.584 60.7714C134.773 60.4368 134.868 59.9021 134.868 59.1674C134.868 58.4254 134.773 57.8871 134.584 57.5525C134.402 57.2178 134.097 57.0505 133.667 57.0505C133.238 57.0505 132.929 57.2178 132.74 57.5525C132.558 57.8871 132.467 58.4254 132.467 59.1674ZM143.495 61.1642V61.4479H141.368V61.1642L141.869 61.1861C141.964 61.1642 142.011 61.0951 142.011 60.9787V58.5018C142.011 58.1526 141.993 57.8835 141.957 57.6943C141.928 57.5052 141.862 57.3597 141.76 57.2579C141.659 57.156 141.498 57.1051 141.28 57.1051C140.866 57.1051 140.527 57.2833 140.265 57.6398C140.011 57.9889 139.873 58.4618 139.851 59.0583V60.9787C139.851 61.117 139.898 61.1861 139.993 61.1861L140.495 61.1642V61.4479H138.367V61.1642L138.771 61.1861C138.865 61.1642 138.912 61.0951 138.912 60.9787V57.3451C138.912 57.2215 138.865 57.1487 138.771 57.1269L138.367 57.1487V56.865H139.905C139.869 56.9741 139.851 57.1014 139.851 57.2469V57.8471C140.004 57.5052 140.222 57.2397 140.506 57.0505C140.789 56.8541 141.117 56.7559 141.488 56.7559C142.004 56.7559 142.375 56.8796 142.601 57.1269C142.833 57.367 142.95 57.7598 142.95 58.3054V60.9787C142.95 61.117 142.997 61.1861 143.092 61.1861L143.495 61.1642ZM156.427 61.1424V61.4479H154.605L153.983 60.6077C153.473 61.2406 152.8 61.5571 151.964 61.5571C151.36 61.5571 150.855 61.4043 150.447 61.0988C150.047 60.786 149.847 60.3313 149.847 59.7348C149.847 59.2911 149.985 58.9092 150.262 58.5891C150.538 58.269 151.018 57.9126 151.702 57.5197L151.626 57.4215C151.24 56.905 151.047 56.4577 151.047 56.0794C151.047 55.7157 151.193 55.4174 151.484 55.1846C151.775 54.9518 152.135 54.8355 152.564 54.8355C152.964 54.8355 153.273 54.9373 153.492 55.141C153.71 55.3374 153.819 55.5811 153.819 55.8721C153.819 56.4031 153.459 56.8687 152.739 57.2688L154.299 59.4075C154.524 58.84 154.637 58.2836 154.637 57.738C154.637 57.5998 154.626 57.5088 154.605 57.4652C154.583 57.4143 154.543 57.3888 154.484 57.3888L153.983 57.4106V57.0942H155.63V57.4106L155.128 57.3888C155.077 57.3888 155.041 57.407 155.019 57.4433C155.005 57.4797 154.994 57.5416 154.986 57.6288C154.914 58.4218 154.757 59.1128 154.517 59.7021L155.488 61.0224C155.561 61.117 155.67 61.1642 155.816 61.1642L156.427 61.1424ZM152.684 55.1737C152.451 55.1737 152.258 55.2283 152.106 55.3374C151.96 55.4465 151.888 55.592 151.888 55.7739C151.888 55.9266 151.938 56.0939 152.04 56.2758C152.149 56.4577 152.302 56.6832 152.499 56.9523L152.564 57.0396C153.182 56.6904 153.492 56.3049 153.492 55.883C153.492 55.6647 153.415 55.4938 153.262 55.3701C153.117 55.2392 152.924 55.1737 152.684 55.1737ZM152.215 61.2188C152.513 61.2188 152.793 61.1424 153.055 60.9897C153.324 60.8296 153.564 60.6114 153.775 60.3349L151.888 57.7707C151.175 58.2726 150.818 58.8946 150.818 59.6366C150.818 60.1094 150.945 60.4914 151.2 60.7823C151.462 61.0733 151.8 61.2188 152.215 61.2188ZM162.647 58.229C162.647 57.1596 162.935 56.3267 163.509 55.7302C164.091 55.1264 164.895 54.8245 165.921 54.8245C166.19 54.8245 166.412 54.8464 166.586 54.89C166.768 54.9337 166.99 54.9991 167.252 55.0864C167.434 55.1519 167.59 55.2028 167.721 55.2392C167.86 55.2756 168.016 55.2937 168.19 55.2937C168.161 55.5193 168.147 55.792 168.147 56.1121C168.147 56.2649 168.15 56.4031 168.158 56.5268C168.165 56.6432 168.176 56.7086 168.19 56.7232H167.929C167.863 56.4249 167.729 56.1521 167.525 55.9048C167.321 55.6575 167.074 55.4611 166.783 55.3156C166.492 55.1701 166.186 55.0973 165.866 55.0973C165.437 55.0973 165.062 55.2283 164.742 55.4902C164.43 55.7448 164.186 56.1085 164.011 56.5813C163.844 57.0542 163.76 57.6034 163.76 58.229C163.76 58.8182 163.848 59.3456 164.022 59.8112C164.204 60.2695 164.459 60.6259 164.786 60.8805C165.113 61.1351 165.492 61.2624 165.921 61.2624C166.423 61.2624 166.867 61.1097 167.252 60.8042C167.638 60.4914 167.881 60.0985 167.983 59.6257H168.289C168.245 59.9676 168.223 60.2768 168.223 60.5532C168.223 60.7641 168.234 60.9351 168.256 61.066H168.19C168.089 61.066 167.969 61.0842 167.83 61.1206C167.692 61.1497 167.579 61.1788 167.492 61.2079C167.412 61.237 167.354 61.2552 167.318 61.2624C167.041 61.357 166.79 61.4298 166.565 61.4807C166.339 61.5316 166.106 61.5571 165.866 61.5571C165.212 61.5571 164.641 61.4225 164.153 61.1533C163.673 60.8842 163.302 60.5023 163.04 60.0076C162.778 59.5057 162.647 58.9128 162.647 58.229ZM173.662 56.7559C173.946 56.7559 174.164 56.8359 174.317 56.996C174.477 57.156 174.557 57.3597 174.557 57.607C174.557 57.7743 174.513 57.9016 174.426 57.9889C174.346 58.0762 174.236 58.1199 174.098 58.1199C173.996 58.1199 173.902 58.0944 173.815 58.0435C173.735 57.9853 173.695 57.898 173.695 57.7816C173.695 57.7161 173.709 57.6325 173.738 57.5306C173.767 57.4288 173.782 57.3488 173.782 57.2906C173.782 57.2324 173.76 57.1815 173.716 57.1378C173.68 57.0869 173.618 57.0614 173.531 57.0614C173.305 57.0614 173.109 57.1706 172.942 57.3888C172.774 57.5998 172.643 57.8653 172.549 58.1853C172.454 58.4981 172.4 58.8 172.385 59.091V60.9787C172.385 61.117 172.432 61.1861 172.527 61.1861L173.193 61.1642V61.4479H170.956V61.1642L171.305 61.1861C171.399 61.1861 171.447 61.117 171.447 60.9787V57.3451C171.447 57.1997 171.399 57.1269 171.305 57.1269L170.912 57.1487V56.865H172.451C172.436 56.9087 172.422 56.9814 172.407 57.0833C172.392 57.1778 172.385 57.2724 172.385 57.367V57.9016C172.552 57.4943 172.738 57.2033 172.942 57.0287C173.153 56.8468 173.393 56.7559 173.662 56.7559ZM181.145 61.1642V61.4479H179.596C179.603 61.397 179.61 61.3316 179.618 61.2515C179.632 61.1642 179.64 61.0951 179.64 61.0442L179.661 60.6187C179.501 60.9315 179.294 61.157 179.039 61.2952C178.792 61.4334 178.494 61.5025 178.145 61.5025C177.686 61.5025 177.337 61.4007 177.097 61.197C176.864 60.986 176.748 60.6768 176.748 60.2695C176.748 59.7093 176.981 59.2983 177.446 59.0365C177.919 58.7673 178.658 58.6327 179.661 58.6327V57.9998C179.661 57.6579 179.581 57.4143 179.421 57.2688C179.261 57.1233 179.003 57.0505 178.647 57.0505C178.094 57.0505 177.817 57.2033 177.817 57.5088C177.817 57.567 177.832 57.6361 177.861 57.7161C177.897 57.7889 177.916 57.858 177.916 57.9235C177.916 58.0471 177.876 58.1417 177.796 58.2072C177.715 58.2654 177.614 58.2945 177.49 58.2945C177.337 58.2945 177.217 58.2472 177.13 58.1526C177.05 58.058 177.01 57.9344 177.01 57.7816C177.01 57.4761 177.17 57.2288 177.49 57.0396C177.81 56.8505 178.239 56.7559 178.778 56.7559C179.992 56.7559 180.6 57.2688 180.6 58.2945V60.9787C180.6 61.117 180.647 61.1861 180.742 61.1861L181.145 61.1642ZM178.472 61.1097C178.792 61.1097 179.065 60.9787 179.29 60.7169C179.516 60.4477 179.64 60.1022 179.661 59.6802V58.9273C178.978 58.9273 178.487 59.0292 178.188 59.2329C177.89 59.4293 177.741 59.7457 177.741 60.1822C177.741 60.4877 177.803 60.7205 177.926 60.8805C178.057 61.0333 178.239 61.1097 178.472 61.1097ZM183.494 61.1642L183.897 61.1861C183.992 61.1861 184.039 61.117 184.039 60.9787V57.1378H183.614V56.865H184.039V56.1449C184.039 54.3262 184.672 53.4169 185.938 53.4169C186.28 53.4169 186.578 53.526 186.833 53.7443C187.095 53.9625 187.226 54.228 187.226 54.5408C187.226 54.6936 187.182 54.8209 187.095 54.9227C187.007 55.0246 186.876 55.0755 186.702 55.0755C186.447 55.0755 186.32 54.97 186.32 54.7591C186.32 54.7009 186.334 54.6281 186.363 54.5408C186.4 54.4535 186.418 54.3662 186.418 54.279C186.418 54.1189 186.371 53.9843 186.276 53.8752C186.182 53.7661 186.043 53.7115 185.862 53.7115C185.6 53.7115 185.374 53.8061 185.185 53.9953C184.996 54.1844 184.901 54.5263 184.901 55.021C184.901 55.2246 184.912 55.4647 184.934 55.7411C184.941 55.843 184.949 55.963 184.956 56.1012C184.963 56.2394 184.967 56.3886 184.967 56.5486V56.865H186.134V57.1378H184.978V60.9787C184.978 61.117 185.025 61.1861 185.12 61.1861L185.84 61.1642V61.4479H183.494V61.1642ZM189.952 56.865H191.152V57.1378H189.952V60.4877C189.952 60.7641 189.985 60.9533 190.05 61.0551C190.116 61.1497 190.232 61.197 190.399 61.197C190.509 61.197 190.621 61.157 190.738 61.0769C190.854 60.9897 190.93 60.8842 190.967 60.7605L191.196 60.9024C191.05 61.3097 190.665 61.5134 190.039 61.5134C189.668 61.5134 189.403 61.4261 189.243 61.2515C189.09 61.0769 189.014 60.7932 189.014 60.4004V57.1378H188.359V56.865C188.65 56.865 188.872 56.8396 189.025 56.7886C189.177 56.7305 189.297 56.625 189.385 56.4722C189.479 56.3194 189.567 56.0794 189.647 55.752H189.952V56.865Z" fill="white"/>
<path d="M37.6013 16.3095C38.5267 17.861 39.1757 19.3893 39.6604 20.7525C39.8943 21.4088 40.0583 21.9423 40.1766 22.3554C40.281 22.7808 40.36 23.0557 40.36 23.0557C40.36 23.0557 40.4084 22.7981 40.4026 22.3269C40.4137 21.8991 40.4065 21.3125 40.3346 20.602C40.1866 19.1523 39.7763 17.3238 38.765 15.6176C37.0646 12.7573 34.1196 10.1818 29.0848 10.1818C25.724 10.1818 23.2734 11.3367 21.5041 12.9832C19.4609 14.9013 18.5271 17.4346 18.1199 19.4345C17.908 20.4644 17.8327 21.3406 17.8068 21.9735C17.7933 22.3017 17.7933 22.557 17.7971 22.7427C17.8194 22.9032 17.8097 23.0526 17.8097 23.0579C17.8095 23.0617 17.8096 23.0612 17.8096 23.0612C17.8096 23.0612 17.8095 23.0617 17.8098 23.0579C17.8113 23.0337 17.8146 22.9187 17.8724 22.7486C17.912 22.5659 17.9679 22.3227 18.0494 22.0095C18.2075 21.401 18.4468 20.5828 18.8108 19.6358C19.5238 17.7924 20.6487 15.6122 22.4266 13.9745C23.944 12.5625 26.0717 11.5359 29.0849 11.5359C33.5445 11.5359 36.1098 13.8007 37.6013 16.3096V16.3095Z" fill="white"/>
<path d="M7.12598 26.0704L51.128 27.2111L58.1701 62.1597L53.8515 24.4876L7.12598 26.0704Z" fill="white"/>
<path d="M56.1978 62.2048L4.68277 59.2672L5.15362 26.2343L0 63.95L56.1978 62.2048Z" fill="white"/>
<path d="M70.1664 5.78583C55.9599 13.0808 54.7013 17.9656 55.1491 22.5326C56.0736 20.7044 58.4076 17.9203 62.0826 15.8952C60.4159 18.1788 58.3945 21.3989 56.7298 22.9616C64.9026 23.5715 64.4277 15.5056 70.1664 5.78583Z" fill="white"/>
<path d="M61.3284 24.2581C59.0359 24.324 57.3877 25.0959 55.9571 26.106C59.1242 25.5837 64.359 26.1238 66.7509 28.7593C61.2476 26.587 57.9178 28.3178 55.9453 28.0736C59.9547 35.035 67.7422 30.6729 77.6105 30.394C69.7367 25.669 64.7968 24.1581 61.3284 24.2581Z" fill="white"/>
<path d="M48.3647 0C43.7906 14.2299 45.7455 18.9454 48.9214 21.8798C48.2469 19.61 48.1862 15.8865 49.615 11.4414C49.6526 16.3115 50.9436 19.4591 51.1444 21.5046C56.6987 15.4841 51.3804 10.1522 48.3647 0Z" fill="white"/>
</svg>
