<svg width="23" height="24" viewBox="0 0 23 24" fill="none" xmlns="http://www.w3.org/2000/svg">
<path d="M19.8925 0C21.2988 0 22.4313 1.137 22.498 2.4765V24L19.822 21.7267L18.3535 20.391L16.7478 18.9923L17.416 21.1957H3.38055C1.97805 21.1957 0.841797 20.133 0.841797 18.7192V2.481C0.841797 1.1415 1.9788 0.0045 3.38505 0.0045H19.885L19.8925 0ZM13.7748 5.6835H13.7433L13.54 5.883C15.6145 6.4845 16.618 7.422 16.618 7.422C15.2823 6.75375 14.0748 6.41775 12.8718 6.28125C12.0048 6.1485 11.1333 6.219 10.399 6.28125H10.1958C9.72705 6.28125 8.7273 6.4845 7.38705 7.01925C6.92205 7.2225 6.6528 7.35525 6.6528 7.35525C6.6528 7.35525 7.65255 6.351 9.86355 5.81625L9.72705 5.6835C9.72705 5.6835 8.0553 5.61675 6.2508 6.95325C6.2508 6.95325 4.4463 10.098 4.4463 13.9725C4.4463 13.9725 5.44605 15.711 8.1888 15.777C8.1888 15.777 8.5908 15.246 8.99355 14.7772C7.45455 14.3085 6.85305 13.371 6.85305 13.371C6.85305 13.371 6.98955 13.4377 7.18905 13.5705H7.24755C7.27905 13.5705 7.2948 13.5862 7.3098 13.602V13.6095C7.32555 13.6252 7.3413 13.6365 7.3683 13.6365C7.70055 13.773 8.0283 13.9058 8.2983 14.0385C8.76705 14.238 9.3648 14.4405 10.099 14.574C11.029 14.7105 12.0948 14.7735 13.3098 14.574C13.9075 14.4375 14.509 14.3085 15.1105 14.0385C15.4975 13.839 15.9775 13.6402 16.5048 13.3005C16.5048 13.3005 15.907 14.238 14.3013 14.7067C14.6298 15.1717 15.094 15.7065 15.094 15.7065C17.8398 15.6442 18.9063 13.9057 18.9648 13.98C18.9648 10.1093 17.1483 6.96075 17.1483 6.96075C15.5155 5.74575 13.984 5.69925 13.7148 5.69925L13.7695 5.67975L13.7748 5.6835ZM13.9428 10.098C14.6463 10.098 15.2125 10.6958 15.2125 11.43C15.2125 12.1725 14.6425 12.7695 13.9428 12.7695C13.2393 12.7695 12.673 12.1718 12.673 11.4375C12.673 10.695 13.243 10.098 13.9428 10.098ZM9.40005 10.098C10.099 10.098 10.666 10.6958 10.666 11.43C10.666 12.1725 10.096 12.7695 9.3963 12.7695C8.6928 12.7695 8.1228 12.1718 8.1228 11.4375C8.1228 10.695 8.6928 10.098 9.3963 10.098H9.40005Z" fill="white"/>
</svg>
