<svg width="22" height="22" viewBox="0 0 22 22" fill="none" xmlns="http://www.w3.org/2000/svg">
<path d="M10.6605 0.78827C4.86445 0.785926 0.169922 5.47811 0.169922 11.2695C0.169922 15.8492 3.10664 19.7422 7.19648 21.1719C7.74726 21.3101 7.66289 20.9187 7.66289 20.6516V18.8351C4.48242 19.2078 4.35352 17.1031 4.14023 16.7516C3.70898 16.0156 2.68945 15.8281 2.99414 15.4766C3.71836 15.1039 4.45664 15.5703 5.31211 16.8336C5.93086 17.75 7.13789 17.5953 7.74961 17.443C7.8832 16.8922 8.16914 16.4 8.56289 16.018C5.26758 15.4273 3.89414 13.4164 3.89414 11.0258C3.89414 9.86561 4.27617 8.79921 5.02617 7.93905C4.54805 6.52108 5.0707 5.30702 5.14102 5.12655C6.50273 5.00468 7.91836 6.10155 8.02851 6.18827C8.80195 5.97968 9.68555 5.86952 10.6746 5.86952C11.6684 5.86952 12.5543 5.98436 13.3348 6.1953C13.5996 5.99374 14.9121 5.05155 16.1777 5.1664C16.2457 5.34686 16.7566 6.5328 16.3066 7.93202C17.066 8.79452 17.4527 9.8703 17.4527 11.0328C17.4527 13.4281 16.0699 15.4414 12.7652 16.0226C13.0483 16.301 13.273 16.633 13.4264 16.9992C13.5797 17.3654 13.6585 17.7585 13.6582 18.1555V20.7922C13.677 21.0031 13.6582 21.2117 14.0098 21.2117C18.1605 19.8125 21.1488 15.8914 21.1488 11.2719C21.1488 5.47811 16.452 0.78827 10.6605 0.78827Z" fill="white"/>
</svg>
