<svg width="21" height="16" viewBox="0 0 21 16" fill="none" xmlns="http://www.w3.org/2000/svg">
<path d="M20.4203 1.96017C19.7031 2.26954 18.9227 2.4922 18.1187 2.57892C18.9534 2.08306 19.5784 1.2997 19.8766 0.375791C19.0934 0.841703 18.2354 1.16841 17.3406 1.34142C16.9667 0.941634 16.5144 0.62315 16.012 0.405808C15.5095 0.188467 14.9677 0.0769255 14.4203 0.0781347C12.2055 0.0781347 10.4242 1.87345 10.4242 4.07657C10.4242 4.38595 10.4617 4.69532 10.5227 4.99298C7.20625 4.81954 4.24844 3.23517 2.28203 0.809385C1.92373 1.42137 1.73597 2.1182 1.73828 2.82735C1.73828 4.21485 2.44375 5.43829 3.51953 6.15782C2.88556 6.13285 2.26643 5.9586 1.7125 5.64923V5.69845C1.7125 7.64142 3.08594 9.25157 4.91641 9.62189C4.57272 9.71116 4.21916 9.75683 3.86406 9.75782C3.60391 9.75782 3.35781 9.73204 3.10937 9.69689C3.61562 11.2813 5.08984 12.432 6.84531 12.4695C5.47187 13.5453 3.75156 14.1781 1.88359 14.1781C1.54844 14.1781 1.23906 14.1664 0.917969 14.1289C2.68984 15.2656 4.79219 15.9219 7.05625 15.9219C14.4062 15.9219 18.4281 9.83282 18.4281 4.54767C18.4281 4.37423 18.4281 4.20079 18.4164 4.02735C19.1945 3.45782 19.8766 2.75235 20.4203 1.96017Z" fill="white"/>
</svg>
