<svg width="308" height="95" viewBox="0 0 308 95" fill="none" xmlns="http://www.w3.org/2000/svg">
<path d="M125.648 69.4628H124.592L150.904 7.86278L151.872 7.42278L174.048 69.4628H166.568L159.704 50.1028H134.008L125.648 69.4628ZM148.176 17.3668L134.36 49.2228H159.44L148.176 17.3668ZM196.163 29.2468V27.3988C193.523 28.4548 191.117 30.5961 188.947 33.8228C186.776 36.9908 185.632 39.9828 185.515 42.7988V69.4628H179.355V25.4628H185.515V39.4548C186.453 36.0521 188.243 32.8548 190.883 29.8628C193.523 26.8121 196.515 25.2281 199.859 25.1108H200.211C201.384 25.1108 202.352 25.5215 203.115 26.3428C203.936 27.1055 204.347 28.0735 204.347 29.2468C204.347 30.4201 203.936 31.3881 203.115 32.1508C202.352 32.9135 201.384 33.2948 200.211 33.2948C199.037 33.2948 198.069 32.9135 197.307 32.1508C196.544 31.3881 196.163 30.4201 196.163 29.2468V29.2468ZM219.956 69.4628C217.55 69.4628 215.702 68.9348 214.412 67.8788C213.18 66.8228 212.534 65.7668 212.476 64.7108L212.388 63.2148V25.4628H218.548V63.2148C218.548 64.9161 218.87 66.2361 219.516 67.1748C220.22 68.0548 220.894 68.5241 221.54 68.5828L222.596 68.7588H225.324V69.4628H219.956ZM212.916 15.6068C212.212 14.9028 211.86 14.0228 211.86 12.9668C211.86 11.9108 212.212 11.0308 212.916 10.3268C213.62 9.56411 214.5 9.18277 215.556 9.18277C216.612 9.18277 217.492 9.56411 218.196 10.3268C218.958 11.0308 219.34 11.9108 219.34 12.9668C219.34 14.0228 218.958 14.9028 218.196 15.6068C217.492 16.3108 216.612 16.6628 215.556 16.6628C214.5 16.6628 213.62 16.3108 212.916 15.6068ZM243.554 69.4628C238.392 69.4628 235.136 68.1135 233.786 65.4148C233.493 64.8281 233.346 64.3001 233.346 63.8308V3.55078H239.506V63.2148C239.506 64.9161 239.829 66.2361 240.474 67.1748C241.178 68.0548 241.882 68.5241 242.586 68.5828L243.554 68.7588H246.282V69.4628H243.554ZM260.175 69.4628C257.769 69.4628 255.921 68.9348 254.631 67.8788C253.399 66.8228 252.753 65.7668 252.695 64.7108L252.607 63.2148V25.4628H258.767V63.2148C258.767 64.9161 259.089 66.2361 259.735 67.1748C260.439 68.0548 261.113 68.5241 261.759 68.5828L262.815 68.7588H265.543V69.4628H260.175ZM253.135 15.6068C252.431 14.9028 252.079 14.0228 252.079 12.9668C252.079 11.9108 252.431 11.0308 253.135 10.3268C253.839 9.56411 254.719 9.18277 255.775 9.18277C256.831 9.18277 257.711 9.56411 258.415 10.3268C259.177 11.0308 259.559 11.9108 259.559 12.9668C259.559 14.0228 259.177 14.9028 258.415 15.6068C257.711 16.3108 256.831 16.6628 255.775 16.6628C254.719 16.6628 253.839 16.3108 253.135 15.6068ZM274.357 26.1668V25.4628H304.893V26.1668L278.317 68.7588H299.349C303.397 68.7588 305.832 67.5855 306.653 65.2388L307.181 65.5028C307.181 65.7375 306.976 66.1481 306.565 66.7348C306.154 67.2628 305.685 67.7028 305.157 68.0548C303.749 68.9935 301.813 69.4628 299.349 69.4628H272.157V68.7588L298.733 26.1668H274.357Z" fill="#FFCE3B"/>
<path d="M148.045 90.7008L148.693 90.7493C148.887 90.7493 148.984 90.6306 148.984 90.3931V82.313C148.984 82.0863 148.892 81.973 148.709 81.973H148.676L148.045 82.0053V81.5196H155.073C155.202 81.5196 155.283 81.5142 155.315 81.5034V84.0132H154.878C154.878 83.3008 154.695 82.7826 154.328 82.4587C153.961 82.1349 153.378 81.973 152.579 81.973H150.684C150.555 81.973 150.49 82.0431 150.49 82.1835V86.0859H151.704C152.093 86.0859 152.401 85.9401 152.627 85.6487C152.865 85.3464 152.984 84.9416 152.984 84.4342H153.421V88.1585H152.984C152.984 87.6727 152.865 87.2841 152.627 86.9927C152.39 86.6904 152.082 86.5393 151.704 86.5393H150.49V90.4093C150.49 90.5064 150.517 90.5874 150.571 90.6522C150.636 90.717 150.711 90.7493 150.798 90.7493L151.64 90.7008V91.1865H148.045V90.7008ZM164.553 90.7655V91.1865H162.254C162.265 91.111 162.275 91.0138 162.286 90.8951C162.308 90.7655 162.319 90.663 162.319 90.5874L162.351 89.9559C162.113 90.4201 161.806 90.7547 161.428 90.9598C161.061 91.1649 160.618 91.2675 160.1 91.2675C159.42 91.2675 158.902 91.1164 158.546 90.8141C158.2 90.5011 158.028 90.0423 158.028 89.4377C158.028 88.6065 158.373 87.9966 159.064 87.608C159.766 87.2086 160.861 87.0089 162.351 87.0089V86.0697C162.351 85.5623 162.232 85.2007 161.995 84.9848C161.757 84.7689 161.374 84.6609 160.845 84.6609C160.025 84.6609 159.614 84.8876 159.614 85.341C159.614 85.4274 159.636 85.5299 159.679 85.6487C159.733 85.7566 159.76 85.8592 159.76 85.9563C159.76 86.1399 159.701 86.2802 159.582 86.3773C159.463 86.4637 159.312 86.5069 159.129 86.5069C158.902 86.5069 158.724 86.4367 158.594 86.2964C158.476 86.156 158.416 85.9725 158.416 85.7458C158.416 85.2924 158.654 84.9254 159.129 84.6447C159.604 84.3641 160.24 84.2237 161.039 84.2237C162.842 84.2237 163.743 84.9848 163.743 86.5069V90.4903C163.743 90.6954 163.814 90.7979 163.954 90.7979L164.553 90.7655ZM160.586 90.6846C161.061 90.6846 161.466 90.4903 161.8 90.1016C162.135 89.7022 162.319 89.1895 162.351 88.5633V87.4461C161.336 87.4461 160.608 87.5972 160.165 87.8994C159.722 88.1909 159.501 88.6605 159.501 89.3082C159.501 89.7616 159.593 90.107 159.776 90.3445C159.971 90.5712 160.24 90.6846 160.586 90.6846ZM168.264 88.8872L168.685 88.8548C168.685 89.2542 168.793 89.6105 169.009 89.9235C169.225 90.2366 169.511 90.4795 169.867 90.6522C170.224 90.8249 170.612 90.9113 171.033 90.9113C171.465 90.9113 171.8 90.8033 172.037 90.5874C172.275 90.3607 172.393 90.0585 172.393 89.6806C172.393 89.3784 172.307 89.1301 172.134 88.9358C171.962 88.7415 171.67 88.5849 171.26 88.4662L169.706 88.029C169.274 87.8994 168.934 87.6835 168.685 87.3813C168.437 87.0682 168.313 86.685 168.313 86.2316C168.313 85.6379 168.534 85.1575 168.977 84.7905C169.419 84.4126 170.024 84.2237 170.79 84.2237C171.006 84.2237 171.195 84.2399 171.357 84.2723C171.53 84.3047 171.74 84.3587 171.989 84.4342C172.323 84.5314 172.572 84.58 172.734 84.58C172.895 84.58 173.047 84.5368 173.187 84.4504L173.09 86.2964H172.734C172.734 85.8646 172.561 85.4867 172.215 85.1629C171.881 84.8283 171.422 84.6609 170.839 84.6609C170.429 84.6609 170.105 84.7689 169.867 84.9848C169.641 85.2007 169.527 85.476 169.527 85.8106C169.527 86.3396 169.862 86.6958 170.531 86.8793L172.086 87.3165C172.636 87.4676 173.025 87.6943 173.252 87.9966C173.478 88.2881 173.592 88.6713 173.592 89.1463C173.592 89.848 173.343 90.3931 172.847 90.7817C172.35 91.1595 171.703 91.3485 170.904 91.3485C170.677 91.3485 170.44 91.3215 170.191 91.2675C169.954 91.2243 169.587 91.1326 169.09 90.9922C168.928 90.949 168.783 90.9275 168.653 90.9275C168.437 90.9275 168.281 90.9598 168.183 91.0246L168.264 88.8872ZM184.896 90.7655V91.1865H181.739V90.7655L182.484 90.7979C182.624 90.7655 182.694 90.663 182.694 90.4903V86.8145C182.694 86.2964 182.667 85.897 182.613 85.6163C182.57 85.3356 182.473 85.1197 182.322 84.9686C182.171 84.8175 181.933 84.7419 181.609 84.7419C180.994 84.7419 180.492 85.0064 180.103 85.5353C179.725 86.0535 179.52 86.7552 179.488 87.6404V90.4903C179.488 90.6954 179.558 90.7979 179.699 90.7979L180.443 90.7655V91.1865H177.286V90.7655L177.885 90.7979C178.025 90.7655 178.095 90.663 178.095 90.4903V80.0784C178.095 79.8517 178.025 79.7384 177.885 79.7384L177.286 79.7708V79.366H179.488V85.843C179.715 85.3356 180.039 84.9416 180.46 84.6609C180.881 84.3695 181.366 84.2237 181.917 84.2237C182.683 84.2237 183.234 84.4072 183.569 84.7743C183.914 85.1305 184.087 85.7134 184.087 86.5231V90.4903C184.087 90.6954 184.157 90.7979 184.297 90.7979L184.896 90.7655ZM189.777 80.7747C190.036 80.7747 190.246 80.8449 190.408 80.9852C190.581 81.1255 190.667 81.3091 190.667 81.5358C190.667 81.784 190.586 81.9784 190.424 82.1187C190.262 82.2482 190.047 82.313 189.777 82.313C189.518 82.313 189.307 82.2482 189.145 82.1187C188.983 81.9784 188.902 81.784 188.902 81.5358C188.902 81.3091 188.983 81.1255 189.145 80.9852C189.307 80.8449 189.518 80.7747 189.777 80.7747V80.7747ZM190.586 90.4903C190.586 90.6954 190.656 90.7979 190.797 90.7979L191.38 90.7655V91.1865H188.384V90.7655L188.983 90.7979C189.124 90.7979 189.194 90.6954 189.194 90.4903V85.0981C189.194 84.9146 189.129 84.8067 188.999 84.7743L188.4 84.8067V84.3857H190.586V90.4903ZM195.102 87.7699C195.102 86.6688 195.377 85.8052 195.928 85.1791C196.478 84.5422 197.288 84.2237 198.357 84.2237C199.425 84.2237 200.235 84.5422 200.786 85.1791C201.336 85.8052 201.611 86.6688 201.611 87.7699C201.611 88.8926 201.336 89.7724 200.786 90.4093C200.235 91.0354 199.425 91.3485 198.357 91.3485C197.288 91.3485 196.478 91.0354 195.928 90.4093C195.377 89.7724 195.102 88.8926 195.102 87.7699ZM196.576 87.8023C196.576 88.8926 196.711 89.686 196.98 90.1826C197.261 90.6684 197.72 90.9113 198.357 90.9113C198.994 90.9113 199.447 90.6684 199.717 90.1826C199.998 89.686 200.138 88.8926 200.138 87.8023C200.138 86.7012 199.998 85.9024 199.717 85.4058C199.447 84.9092 198.994 84.6609 198.357 84.6609C197.72 84.6609 197.261 84.9092 196.98 85.4058C196.711 85.9024 196.576 86.7012 196.576 87.8023ZM212.941 90.7655V91.1865H209.784V90.7655L210.528 90.7979C210.669 90.7655 210.739 90.663 210.739 90.4903V86.8145C210.739 86.2964 210.712 85.897 210.658 85.6163C210.615 85.3356 210.518 85.1197 210.367 84.9686C210.215 84.8175 209.978 84.7419 209.654 84.7419C209.039 84.7419 208.537 85.0064 208.148 85.5353C207.77 86.0535 207.565 86.7552 207.533 87.6404V90.4903C207.533 90.6954 207.603 90.7979 207.743 90.7979L208.488 90.7655V91.1865H205.331V90.7655L205.93 90.7979C206.07 90.7655 206.14 90.663 206.14 90.4903V85.0981C206.14 84.9146 206.07 84.8067 205.93 84.7743L205.331 84.8067V84.3857H207.614C207.56 84.5476 207.533 84.7365 207.533 84.9524V85.843C207.76 85.3356 208.083 84.9416 208.504 84.6609C208.925 84.3695 209.411 84.2237 209.962 84.2237C210.728 84.2237 211.279 84.4072 211.613 84.7743C211.959 85.1305 212.132 85.7134 212.132 86.5231V90.4903C212.132 90.6954 212.202 90.7979 212.342 90.7979L212.941 90.7655ZM232.131 90.7331V91.1865H229.427L228.504 89.9397C227.748 90.8789 226.75 91.3485 225.508 91.3485C224.612 91.3485 223.862 91.1218 223.257 90.6684C222.664 90.2042 222.367 89.5295 222.367 88.6443C222.367 87.9858 222.572 87.4191 222.982 86.9441C223.392 86.4691 224.105 85.9401 225.12 85.3572L225.006 85.2115C224.434 84.445 224.148 83.7811 224.148 83.2198C224.148 82.68 224.364 82.2374 224.796 81.892C225.228 81.5466 225.762 81.3738 226.399 81.3738C226.993 81.3738 227.451 81.525 227.775 81.8272C228.099 82.1187 228.261 82.4803 228.261 82.9121C228.261 83.7002 227.727 84.3911 226.658 84.9848L228.973 88.1585C229.308 87.3165 229.475 86.4907 229.475 85.6811C229.475 85.476 229.459 85.341 229.427 85.2762C229.394 85.2007 229.335 85.1629 229.249 85.1629L228.504 85.1953V84.7257H230.949V85.1953L230.204 85.1629C230.128 85.1629 230.074 85.1899 230.042 85.2439C230.021 85.2978 230.004 85.3896 229.994 85.5191C229.886 86.6958 229.653 87.7213 229.297 88.5957L230.738 90.555C230.846 90.6954 231.008 90.7655 231.224 90.7655L232.131 90.7331ZM226.577 81.8758C226.231 81.8758 225.945 81.9568 225.719 82.1187C225.503 82.2806 225.395 82.4965 225.395 82.7664C225.395 82.9931 225.47 83.2414 225.622 83.5113C225.783 83.7811 226.01 84.1158 226.302 84.5152L226.399 84.6447C227.316 84.1266 227.775 83.5544 227.775 82.9283C227.775 82.6045 227.662 82.3508 227.435 82.1673C227.219 81.973 226.933 81.8758 226.577 81.8758V81.8758ZM225.881 90.8465C226.323 90.8465 226.739 90.7331 227.127 90.5064C227.527 90.269 227.883 89.9451 228.196 89.5349L225.395 85.7296C224.337 86.4745 223.808 87.3975 223.808 88.4986C223.808 89.2002 223.997 89.767 224.375 90.1988C224.763 90.6306 225.265 90.8465 225.881 90.8465V90.8465ZM241.362 86.4097C241.362 84.8229 241.788 83.5868 242.641 82.7016C243.505 81.8056 244.698 81.3576 246.22 81.3576C246.619 81.3576 246.949 81.39 247.208 81.4548C247.477 81.5196 247.807 81.6167 248.195 81.7463C248.465 81.8434 248.697 81.919 248.892 81.973C249.097 82.0269 249.329 82.0539 249.588 82.0539C249.545 82.3886 249.523 82.7934 249.523 83.2684C249.523 83.4951 249.529 83.7002 249.539 83.8837C249.55 84.0564 249.566 84.1536 249.588 84.1752H249.199C249.102 83.7326 248.902 83.3277 248.6 82.9607C248.298 82.5937 247.931 82.3022 247.499 82.0863C247.067 81.8704 246.614 81.7625 246.139 81.7625C245.502 81.7625 244.946 81.9568 244.471 82.3454C244.007 82.7232 243.645 83.263 243.386 83.9646C243.138 84.6663 243.014 85.4814 243.014 86.4097C243.014 87.2841 243.143 88.0668 243.402 88.7577C243.672 89.4377 244.05 89.9667 244.536 90.3445C245.022 90.7223 245.583 90.9113 246.22 90.9113C246.965 90.9113 247.623 90.6846 248.195 90.2312C248.767 89.767 249.129 89.1841 249.28 88.4824H249.734C249.669 88.9897 249.636 89.4485 249.636 89.8587C249.636 90.1718 249.653 90.4255 249.685 90.6198H249.588C249.437 90.6198 249.259 90.6468 249.054 90.7008C248.848 90.7439 248.681 90.7871 248.552 90.8303C248.433 90.8735 248.346 90.9005 248.292 90.9113C247.882 91.0516 247.51 91.1595 247.175 91.2351C246.841 91.3107 246.495 91.3485 246.139 91.3485C245.167 91.3485 244.32 91.1488 243.597 90.7493C242.884 90.3499 242.334 89.7832 241.945 89.0491C241.556 88.3043 241.362 87.4245 241.362 86.4097ZM257.707 84.2237C258.128 84.2237 258.452 84.3425 258.679 84.58C258.916 84.8175 259.035 85.1197 259.035 85.4868C259.035 85.735 258.97 85.9239 258.841 86.0535C258.722 86.183 258.56 86.2478 258.355 86.2478C258.204 86.2478 258.063 86.21 257.934 86.1345C257.815 86.0481 257.756 85.9186 257.756 85.7458C257.756 85.6487 257.777 85.5245 257.82 85.3734C257.864 85.2223 257.885 85.1035 257.885 85.0172C257.885 84.9308 257.853 84.8552 257.788 84.7905C257.734 84.7149 257.642 84.6771 257.513 84.6771C257.178 84.6771 256.887 84.839 256.638 85.1629C256.39 85.476 256.196 85.87 256.055 86.345C255.915 86.8091 255.834 87.2571 255.813 87.6889V90.4903C255.813 90.6954 255.883 90.7979 256.023 90.7979L257.011 90.7655V91.1865H253.691V90.7655L254.21 90.7979C254.35 90.7979 254.42 90.6954 254.42 90.4903V85.0981C254.42 84.8822 254.35 84.7743 254.21 84.7743L253.627 84.8067V84.3857H255.91C255.888 84.4504 255.867 84.5584 255.845 84.7095C255.823 84.8498 255.813 84.9902 255.813 85.1305V85.9239C256.061 85.3194 256.336 84.8876 256.638 84.6285C256.951 84.3587 257.308 84.2237 257.707 84.2237V84.2237ZM268.813 90.7655V91.1865H266.513C266.524 91.111 266.535 91.0138 266.546 90.8951C266.567 90.7655 266.578 90.663 266.578 90.5874L266.61 89.9559C266.373 90.4201 266.065 90.7547 265.687 90.9598C265.32 91.1649 264.878 91.2675 264.36 91.2675C263.679 91.2675 263.161 91.1164 262.805 90.8141C262.46 90.5011 262.287 90.0423 262.287 89.4377C262.287 88.6065 262.632 87.9966 263.323 87.608C264.025 87.2086 265.121 87.0089 266.61 87.0089V86.0697C266.61 85.5623 266.492 85.2007 266.254 84.9848C266.017 84.7689 265.633 84.6609 265.104 84.6609C264.284 84.6609 263.874 84.8876 263.874 85.341C263.874 85.4274 263.895 85.5299 263.939 85.6487C263.993 85.7566 264.02 85.8592 264.02 85.9563C264.02 86.1399 263.96 86.2802 263.841 86.3773C263.723 86.4637 263.572 86.5069 263.388 86.5069C263.161 86.5069 262.983 86.4367 262.854 86.2964C262.735 86.156 262.676 85.9725 262.676 85.7458C262.676 85.2924 262.913 84.9254 263.388 84.6447C263.863 84.3641 264.5 84.2237 265.299 84.2237C267.102 84.2237 268.003 84.9848 268.003 86.5069V90.4903C268.003 90.6954 268.073 90.7979 268.213 90.7979L268.813 90.7655ZM264.845 90.6846C265.32 90.6846 265.725 90.4903 266.06 90.1016C266.394 89.7022 266.578 89.1895 266.61 88.5633V87.4461C265.596 87.4461 264.867 87.5972 264.424 87.8994C263.982 88.1909 263.76 88.6605 263.76 89.3082C263.76 89.7616 263.852 90.107 264.036 90.3445C264.23 90.5712 264.5 90.6846 264.845 90.6846V90.6846ZM272.297 90.7655L272.896 90.7979C273.037 90.7979 273.107 90.6954 273.107 90.4903V84.7905H272.475V84.3857H273.107V83.3169C273.107 80.6182 274.046 79.2688 275.924 79.2688C276.432 79.2688 276.874 79.4307 277.252 79.7546C277.641 80.0784 277.835 80.4724 277.835 80.9366C277.835 81.1633 277.77 81.3522 277.641 81.5034C277.511 81.6545 277.317 81.7301 277.058 81.7301C276.68 81.7301 276.491 81.5735 276.491 81.2605C276.491 81.1741 276.513 81.0662 276.556 80.9366C276.61 80.8071 276.637 80.6776 276.637 80.548C276.637 80.3105 276.567 80.1108 276.426 79.9489C276.286 79.787 276.081 79.706 275.811 79.706C275.422 79.706 275.088 79.8463 274.807 80.127C274.526 80.4077 274.386 80.915 274.386 81.6491C274.386 81.9514 274.402 82.3076 274.435 82.7178C274.446 82.8689 274.456 83.0471 274.467 83.2522C274.478 83.4573 274.483 83.6786 274.483 83.9161V84.3857H276.216V84.7905H274.5V90.4903C274.5 90.6954 274.57 90.7979 274.71 90.7979L275.779 90.7655V91.1865H272.297V90.7655ZM281.881 84.3857H283.662V84.7905H281.881V89.7616C281.881 90.1718 281.93 90.4525 282.027 90.6036C282.124 90.7439 282.297 90.8141 282.545 90.8141C282.707 90.8141 282.874 90.7547 283.047 90.636C283.22 90.5064 283.333 90.3499 283.387 90.1664L283.727 90.3769C283.511 90.9814 282.939 91.2837 282.011 91.2837C281.46 91.2837 281.066 91.1542 280.829 90.8951C280.602 90.636 280.489 90.215 280.489 89.6321V84.7905H279.517V84.3857C279.949 84.3857 280.278 84.3479 280.505 84.2723C280.732 84.1859 280.91 84.0294 281.039 83.8027C281.18 83.576 281.309 83.2198 281.428 82.734H281.881V84.3857Z" fill="#212834"/>
<path d="M55.7992 24.2026C57.1724 26.5051 58.1355 28.773 58.8548 30.7959C59.202 31.7698 59.4453 32.5615 59.6208 33.1746C59.7757 33.8058 59.893 34.2138 59.893 34.2138C59.893 34.2138 59.9648 33.8315 59.9562 33.1322C59.9727 32.4974 59.962 31.627 59.8553 30.5726C59.6358 28.4212 59.0268 25.7078 57.5261 23.1758C55.0028 18.9312 50.6324 15.1094 43.161 15.1094C38.1737 15.1094 34.5371 16.8231 31.9114 19.2665C28.8795 22.1129 27.4938 25.8722 26.8894 28.84C26.5751 30.3684 26.4633 31.6686 26.4249 32.6079C26.4048 33.0949 26.4048 33.4738 26.4105 33.7493C26.4435 33.9875 26.4292 34.2091 26.4292 34.217C26.4289 34.2227 26.4289 34.222 26.4289 34.222C26.4289 34.222 26.4289 34.2227 26.4292 34.217C26.4316 34.1812 26.4364 34.0105 26.5222 33.758C26.581 33.4868 26.6639 33.126 26.7849 32.6612C27.0194 31.7582 27.3747 30.5441 27.9148 29.1387C28.9728 26.4033 30.6422 23.1679 33.2805 20.7376C35.5322 18.6422 38.6897 17.1188 43.1612 17.1188C49.7791 17.1188 53.5859 20.4796 55.7992 24.2027V24.2026Z" fill="#212834"/>
<path d="M10.5742 38.6875L75.8717 40.3802L86.3219 92.2426L79.9133 36.3386L10.5742 38.6875Z" fill="#212834"/>
<path d="M83.3955 92.3097L6.94907 87.9504L7.64779 38.9307L0 94.8995L83.3955 92.3097Z" fill="#212834"/>
<path d="M104.124 8.58594C83.0424 19.4114 81.1746 26.6603 81.8391 33.4375C83.2111 30.7246 86.6746 26.593 92.1282 23.5879C89.6549 26.9766 86.6553 31.7553 84.1849 34.0742C96.313 34.9793 95.6084 23.0097 104.124 8.58594V8.58594Z" fill="#FFBF01"/>
<path d="M91.0088 35.998C87.6068 36.0959 85.1609 37.2413 83.0381 38.7402C87.7378 37.9652 95.5061 38.7667 99.0556 42.6777C90.8889 39.4541 85.9476 42.0224 83.0205 41.6602C88.9702 51.9907 100.527 45.5174 115.171 45.1035C103.486 38.0917 96.1558 35.8497 91.0088 35.998V35.998Z" fill="#FFBF01"/>
<path d="M71.7727 0C64.9849 21.1167 67.886 28.1142 72.5989 32.4688C71.598 29.1006 71.5078 23.5749 73.6282 16.9786C73.684 24.2056 75.5998 28.8766 75.8977 31.9121C84.1402 22.9778 76.2479 15.0655 71.7727 0V0Z" fill="#FFBF01"/>
</svg>
